<svg xmlns="http://www.w3.org/2000/svg" aria-hidden="true" overflow="hidden" style="position:absolute;width:0;height:0">
  <defs>
    <symbol id="icon-astronaut" viewBox="0 0 32 32">
      <path fill="var(--color1, #2196f3)" d="M31.974 4.524a.534.534 0 0 0-.43-.363l-1.91-.278-.855-1.731c-.179-.365-.777-.365-.956 0l-.855 1.731-1.91.278a.535.535 0 0 0-.296.91l1.383 1.348-.326 1.903c-.034.2.048.402.212.522a.53.53 0 0 0 .562.04l1.709-.899 1.709.899a.536.536 0 0 0 .775-.563l-.326-1.903 1.383-1.348a.536.536 0 0 0 .135-.547zm-2.463 1.327a.534.534 0 0 0-.153.472l.191 1.114-1-.526a.533.533 0 0 0-.498 0l-1.001.526.191-1.114a.534.534 0 0 0-.153-.472l-.81-.789 1.119-.163a.532.532 0 0 0 .402-.292l.5-1.013.5 1.013a.535.535 0 0 0 .402.292l1.119.163-.809.789zm-3.377 14.671h-1.067v1.067h1.067v-1.067zm0 2.134h-1.067v1.067h1.067v-1.067zm1.066-1.067h-1.067v1.067H27.2v-1.067zm-2.133 0H24v1.067h1.067v-1.067zm-2.667 4.8h-1.067v1.067H22.4v-1.067zm0 2.133h-1.067v1.067H22.4v-1.067zm1.067-1.066H22.4v1.067h1.067v-1.067zm-2.134 0h-1.067v1.067h1.067v-1.067zM16 24.256h-1.067v1.067H16v-1.067zm0 2.133h-1.067v1.067H16v-1.067zm1.067-1.067H16v1.067h1.067v-1.067zm-2.134 0h-1.067v1.067h1.067v-1.067zm-9.066-19.2H4.8v1.067h1.067V6.122zm0 2.133H4.8v1.067h1.067V8.255z"/>
      <path fill="var(--color1, #2196f3)" d="M6.933 7.189H5.866v1.067h1.067V7.189zm-2.133 0H3.733v1.067H4.8V7.189z"/>
      <path fill="var(--color2, #212121)" d="M24.715 14.159a1.775 1.775 0 0 0-1.188-.705 1.778 1.778 0 0 0-1.34.352l-1.252.96-1.898 1.417-1.358-.541c2.421-1.086 4.114-3.508 4.114-6.32 0-3.823-3.123-6.933-6.961-6.933s-6.961 3.11-6.961 6.933a6.86 6.86 0 0 0 1.12 3.758l-2.764-.024h-.005c-.009 0-.015.004-.023.005a.515.515 0 0 0-.155.031l-.038.013c-.006.003-.013.003-.019.006l-3.233 1.596-.001.001-1.893.911a.397.397 0 0 0-.063.035 1.779 1.779 0 0 0-.598 2.295c.22.429.595.745 1.056.889a1.776 1.776 0 0 0 1.378-.128l1.388-.738 2.264-1.169 1.357-.008L2.2 22.211l-.002.001-1.339 1.333c-.316.315-.49.732-.49 1.178s.174.863.49 1.179c.325.323.752.485 1.179.485s.854-.162 1.18-.485l1.314-1.309 1.741-1.3.901.897-1.762 1.754-.002.001-1.339 1.333c-.316.315-.49.732-.49 1.178s.174.863.49 1.179c.325.323.753.485 1.18.485s.855-.162 1.18-.485l3.482-3.467.001-.002 1.01-1-.004-.004c.006-.006.015-.009.022-.015l5.166-5.658 3.471.494a.52.52 0 0 0 .262-.033c.018-.006.033-.015.05-.023.019-.01.039-.015.058-.027l3.213-2.133c.012-.008.018-.021.029-.029.013-.01.029-.014.041-.026l1.271-1.191c.662-.62.753-1.635.212-2.362zM2.13 17.77a.714.714 0 0 1-.558.052.717.717 0 0 1-.213-1.26l1.314-.632.449 1.312-.992.528zm3.498-1.828-1.548.8-.439-1.283 2.027-1.001-.04 1.484zm15.099-6.62a5.79 5.79 0 0 1-.599 2.559l-4.181-1.899a1.863 1.863 0 0 0-.788-1.388l1.464-4.86c2.378.756 4.105 2.974 4.105 5.588zm-11.789 0c0-3.235 2.644-5.867 5.894-5.867.253 0 .5.021.745.052l-1.432 4.754c-.019-.001-.037-.006-.057-.006-1.033 0-1.873.837-1.873 1.867s.84 1.867 1.873 1.867c.694 0 1.294-.383 1.618-.945l3.862 1.755a5.894 5.894 0 0 1-4.737 2.39c-3.25 0-5.894-2.632-5.894-5.867zm5.956.8c0 .441-.362.8-.806.8s-.806-.359-.806-.8c0-.441.362-.8.806-.8s.806.359.806.8zM2.465 25.146a.608.608 0 0 1-.854.001.592.592 0 0 1 0-.844l.962-.958.851.848-.959.955zm3.214 3.734a.608.608 0 0 1-.855.001.592.592 0 0 1 0-.844l.963-.959.852.848-.96.955zm3.481-3.469-.002.001-1.765 1.76-.852-.848 1.763-1.755.002-.001c.04-.04.065-.088.09-.135.007-.014.02-.026.026-.04.017-.041.019-.085.026-.129.003-.025.014-.047.014-.073 0-.036-.013-.07-.02-.106-.006-.032-.006-.065-.019-.095a.55.55 0 0 0-.091-.138c-.01-.012-.014-.027-.025-.038h-.001l-.001-.002-1.607-1.6c-.017-.017-.039-.024-.058-.038a.507.507 0 0 0-.087-.058.515.515 0 0 0-.093-.033.507.507 0 0 0-.103-.02.5.5 0 0 0-.095.005.53.53 0 0 0-.104.02.477.477 0 0 0-.094.045c-.02.011-.042.015-.061.029L4.23 23.486l-.901-.897 2.399-2.386 4.361 4.289-.928.919zm6.819-7.017c-.015-.002-.03.004-.045.003a.556.556 0 0 0-.3.075.492.492 0 0 0-.083.061c-.013.011-.028.017-.04.029l-4.698 5.146-4.328-4.257 2.833-2.818a.534.534 0 0 0-.379-.911v-.001l-2.219.013.028-1.607 3.104.027a6.947 6.947 0 0 0 4.981 2.101c.437 0 .864-.045 1.279-.123.04.032.079.065.13.085l2.41.96.331 1.644-3.003-.427zm4.041.178-.313-1.558 1.446-1.08.947 1.257-2.08 1.381zm3.754-2.831-.838.785-.931-1.236.831-.637a.735.735 0 0 1 .543-.143.718.718 0 0 1 .48.284.713.713 0 0 1-.085.947z"/>
      <path fill="var(--color2, #212121)" d="m13.602 18.544-2.143-2.133a.534.534 0 0 0-.753 0l-2.142 2.133a.537.537 0 0 0 0 .756l2.142 2.133a.536.536 0 0 0 .753 0l2.143-2.133a.535.535 0 0 0 0-.756zm-2.519 1.759-1.387-1.381 1.387-1.381 1.387 1.381-1.387 1.381zm6.081-15.232-.258 1.036c.071.018 1.738.452 1.738 2.149h1.067c0-2.017-1.666-2.965-2.547-3.185zm2.547 4.251h-1.067v1.067h1.067V9.322z"/>
    </symbol>
    <symbol id="icon-clock" viewBox="0 0 32 32">
      <path fill="var(--color2, #212121)" d="M31.297 15.301C31.295 6.849 24.442-.002 15.989 0S.686 6.855.688 15.308a15.304 15.304 0 0 0 10.649 14.576.662.662 0 0 0 .529-.065.637.637 0 0 0 .283-.356l3.865-12.25a1.912 1.912 0 1 0-.84-3.635l-5.106-5.107a.637.637 0 0 0-.902.902l5.103 5.109a1.876 1.876 0 0 0 .536 2.309l-3.683 11.673C3.844 25.783.118 17.71 2.799 10.432S13.553-.572 20.831 2.109s11.004 10.754 8.323 18.032a14.042 14.042 0 0 1-7.462 7.973l-.398-1.874a.638.638 0 0 0-1.048-.344l-3.837 3.426a.637.637 0 0 0 .231 1.084l4.899 1.563a.638.638 0 0 0 .819-.74l-.391-1.839a15.255 15.255 0 0 0 9.329-14.089zm-15.305-.637a.638.638 0 1 1 0 1.277.638.638 0 0 1 0-1.277zm2.101 14.864 2.184-1.948.603 2.84-2.787-.892z"/>
      <path fill="var(--color1, #2196f3)" d="M15.354 3.185V4.46a.638.638 0 1 0 1.276 0V3.185a.638.638 0 0 0-1.276 0zM3.876 14.664a.638.638 0 0 0 0 1.276h1.275a.638.638 0 1 0 0-1.276H3.876zm24.232 1.275a.638.638 0 1 0 0-1.276h-1.275a.638.638 0 0 0 0 1.276h1.275z"/>
    </symbol>
    <symbol id="icon-diagram" viewBox="0 0 32 32">
      <path fill="var(--color1, #2196f3)" d="M14.926 14.965h1.066v4.798h-1.066v-4.797zm4.264 2.132h1.066v2.665H19.19v-2.665zm-8.529 1.599h1.066v1.066h-1.066v-1.066zm-3.198-.533h1.066v1.599H7.463v-1.599z"/>
      <path fill="var(--color2, #212121)" d="M1.599 28.291h25.587a1.6 1.6 0 0 0 1.599-1.599V24.56a1.6 1.6 0 0 0-1.599-1.599h-.533V9.668L29.681 6.8a1.608 1.608 0 1 0-.746-.763L26.654 8.2V6.97a1.6 1.6 0 0 0-1.599-1.599H3.733A1.6 1.6 0 0 0 2.134 6.97v15.992h-.533a1.6 1.6 0 0 0-1.599 1.599v2.132a1.6 1.6 0 0 0 1.599 1.599zM30.384 4.837a.533.533 0 1 1 0 1.067.533.533 0 0 1 0-1.067zM3.198 6.969c0-.294.239-.533.533-.533h21.322c.294 0 .533.239.533.533v2.239l-1.066 1.013V8.035a.533.533 0 0 0-.533-.533H4.797a.533.533 0 0 0-.533.533v13.326c0 .294.239.533.533.533h19.19a.533.533 0 0 0 .533-.533v-9.674l1.066-1.01v12.284H3.198V6.969zm4.798 6.93a1.598 1.598 0 1 0 1.107 2.749l1.853.93a.532.532 0 0 0 .636-.123l3.939-4.431 3.872 2.901a.533.533 0 0 0 .686-.039l3.365-3.188v8.131H5.33V8.569h18.124v2.66l-3.771 3.572-3.904-2.927a.533.533 0 0 0-.718.072l-3.993 4.493-1.493-.746c.011-.064.018-.129.02-.193a1.6 1.6 0 0 0-1.599-1.599zm.533 1.599a.533.533 0 1 1-1.067 0 .533.533 0 0 1 1.067 0zm3.198 8.529h5.331v.533a.533.533 0 0 1-.533.533h-4.264a.533.533 0 0 1-.533-.533v-.533zm-10.661.533c0-.294.239-.533.533-.533h9.062v.533a1.6 1.6 0 0 0 1.599 1.599h4.264a1.6 1.6 0 0 0 1.599-1.599v-.533h9.062c.294 0 .533.239.533.533v2.132a.533.533 0 0 1-.533.533H1.598a.533.533 0 0 1-.533-.533V24.56z"/>
    </symbol>
    <symbol id="icon-antenna" viewBox="0 0 30 32">
      <path fill="var(--color2, #212121)" d="m29.859 22.098-8.443-8.505.937-4.615c.242.094.499.144.758.146h.006a2.159 2.159 0 1 0-2.008-1.435l-4.96.605L8.058.161a.534.534 0 0 0-.377-.16.532.532 0 0 0-.373.155L5.795 1.66a.534.534 0 0 0 0 .754l.814.826a14.943 14.943 0 0 0 2.519 17.663.513.513 0 0 0 .146.098c-.034.18-.051.364-.052.547v6.187h-6.4a2.67 2.67 0 0 0-2.667 2.667v1.067c0 .295.239.533.533.533h24.533a.533.533 0 0 0 .533-.533v-1.067a2.67 2.67 0 0 0-2.667-2.667h-6.4v-2.742a15.09 15.09 0 0 0 3.049.32 14.854 14.854 0 0 0 7.04-1.783l.818.823a.534.534 0 0 0 .377.16.532.532 0 0 0 .373-.155l1.513-1.504a.534.534 0 0 0 0-.754zM22.366 6.233a1.066 1.066 0 1 1 .752 1.822h-.003a1.067 1.067 0 0 1-.747-1.823h-.002zM21.11 9.738l-.598 2.946-1.175-1.182 1.774-1.763zm-.606-.902-1.92 1.909-1.485-1.493 3.405-.415zM23.09 28.8a1.6 1.6 0 0 1 1.6 1.6v.533H1.223V30.4a1.6 1.6 0 0 1 1.6-1.6H23.09zm-7.467-2.133v1.067H10.29v-1.067h5.333zM10.29 25.6v-4.053c0-1.294 1.196-2.347 2.667-2.347s2.667 1.053 2.667 2.347V25.6h-5.333zm6.4-1.696v-2.357c0-1.882-1.675-3.413-3.733-3.413a3.8 3.8 0 0 0-3.281 1.786A13.87 13.87 0 0 1 7.397 4.033l18.602 18.708a13.818 13.818 0 0 1-9.309 1.163zm11.289-.684L6.922 2.039l.755-.752 7.935 7.98c.004 0 .006.007.01.01l13.115 13.191-.757.752z"/>
      <path fill="var(--color1, #2196f3)" d="M12.961 20.267h-.005a1.6 1.6 0 1 0-.004 3.2h.005a1.6 1.6 0 1 0 .004-3.2zm.374 1.978a.534.534 0 0 1-.752-.756.534.534 0 0 1 .373-.155.532.532 0 0 1 .373.911h.005z"/>
    </symbol>
    <symbol id="icon-mail" viewBox="0 0 43 32">
<path d="M38.667 0h-34.667c-2.206 0-4 1.794-4 4v24c0 2.206 1.794 4 4 4h34.667c2.206 0 4-1.794 4-4v-24c0-2.206-1.794-4-4-4zM38.667 2.667c0.181 0 0.353 0.038 0.511 0.103l-17.844 15.466-17.844-15.466c0.158-0.066 0.33-0.103 0.511-0.103h34.667zM38.667 29.333h-34.667c-0.736 0-1.333-0.598-1.333-1.333v-22.413l17.793 15.421c0.251 0.217 0.563 0.326 0.874 0.326s0.622-0.108 0.874-0.326l17.793-15.421v22.413c0 0.736-0.598 1.333-1.333 1.333z"></path>
  </symbol>
  <symbol id="icon-smartphone" viewBox="0 0 20 32">
<path d="M17 0h-14c-1.654 0-3 1.346-3 3v26c0 1.654 1.346 3 3 3h14c1.654 0 3-1.346 3-3v-26c0-1.654-1.346-3-3-3zM3 2h14c0.552 0 1 0.448 1 1v21h-16v-21c0-0.552 0.448-1 1-1zM17 30h-14c-0.552 0-1-0.448-1-1v-3h16v3c0 0.552-0.448 1-1 1z"></path>
<path d="M4.707 27.478c0.391 0.365 0.391 0.956 0 1.321s-1.024 0.365-1.414 0c-0.391-0.365-0.391-0.956 0-1.321s1.024-0.365 1.414 0z"></path>
</symbol>
<symbol id="icon-instagram" viewBox="0 0 32 32">
<path d="M31.969 9.408c-0.075-1.7-0.35-2.869-0.744-3.882-0.406-1.075-1.032-2.038-1.851-2.838-0.8-0.813-1.769-1.444-2.832-1.844-1.019-0.394-2.182-0.669-3.882-0.744-1.713-0.081-2.257-0.1-6.601-0.1s-4.888 0.019-6.595 0.094c-1.7 0.075-2.869 0.35-3.882 0.744-1.075 0.406-2.038 1.031-2.838 1.85-0.813 0.8-1.444 1.769-1.844 2.832-0.394 1.019-0.669 2.182-0.744 3.882-0.081 1.713-0.1 2.257-0.1 6.601s0.019 4.888 0.094 6.595c0.075 1.7 0.35 2.869 0.744 3.882 0.406 1.075 1.038 2.038 1.85 2.838 0.8 0.813 1.769 1.444 2.832 1.844 1.019 0.394 2.182 0.669 3.882 0.744 1.706 0.075 2.25 0.094 6.595 0.094s4.888-0.019 6.595-0.094c1.7-0.075 2.869-0.35 3.882-0.744 2.151-0.832 3.851-2.532 4.682-4.682 0.394-1.019 0.669-2.182 0.744-3.882 0.075-1.707 0.094-2.251 0.094-6.595s-0.006-4.888-0.081-6.595zM29.087 22.473c-0.069 1.563-0.331 2.407-0.55 2.969-0.538 1.394-1.644 2.5-3.038 3.038-0.563 0.219-1.413 0.481-2.969 0.55-1.688 0.075-2.194 0.094-6.464 0.094s-4.782-0.019-6.464-0.094c-1.563-0.069-2.407-0.331-2.969-0.55-0.694-0.256-1.325-0.663-1.838-1.194-0.531-0.519-0.938-1.144-1.194-1.838-0.219-0.563-0.481-1.413-0.55-2.969-0.075-1.688-0.094-2.194-0.094-6.464s0.019-4.782 0.094-6.464c0.069-1.563 0.331-2.407 0.55-2.969 0.256-0.694 0.663-1.325 1.2-1.838 0.519-0.531 1.144-0.938 1.838-1.194 0.563-0.219 1.413-0.481 2.969-0.55 1.688-0.075 2.194-0.094 6.464-0.094 4.276 0 4.782 0.019 6.464 0.094 1.563 0.069 2.407 0.331 2.969 0.55 0.694 0.256 1.325 0.662 1.838 1.194 0.531 0.519 0.938 1.144 1.194 1.838 0.219 0.563 0.481 1.413 0.55 2.969 0.075 1.688 0.094 2.194 0.094 6.464s-0.019 4.77-0.094 6.458z"></path>
<path d="M16.059 7.783c-4.538 0-8.22 3.682-8.22 8.22s3.682 8.22 8.22 8.22c4.538 0 8.22-3.682 8.22-8.22s-3.682-8.22-8.22-8.22zM16.059 21.335c-2.944 0-5.332-2.388-5.332-5.332s2.388-5.332 5.332-5.332c2.944 0 5.332 2.388 5.332 5.332s-2.388 5.332-5.332 5.332z"></path>
<path d="M26.524 7.458c0 1.060-0.859 1.919-1.919 1.919s-1.919-0.859-1.919-1.919c0-1.060 0.859-1.919 1.919-1.919s1.919 0.859 1.919 1.919z"></path>
</symbol>
<symbol id="icon-linkedin" viewBox="0 0 32 32">
<path d="M31.992 32v-0.001h0.008v-11.736c0-5.741-1.236-10.164-7.948-10.164-3.227 0-5.392 1.771-6.276 3.449h-0.093v-2.913h-6.364v21.364h6.627v-10.579c0-2.785 0.528-5.479 3.977-5.479 3.399 0 3.449 3.179 3.449 5.657v10.401h6.62z"></path>
<path d="M0.528 10.636h6.635v21.364h-6.635v-21.364z"></path>
<path d="M3.843 0c-2.121 0-3.843 1.721-3.843 3.843s1.721 3.879 3.843 3.879c2.121 0 3.843-1.757 3.843-3.879-0.001-2.121-1.723-3.843-3.843-3.843v0z"></path>
</symbol>
<symbol id="icon-facebook" viewBox="0 0 32 32">
<path d="M21.329 5.313h2.921v-5.088c-0.504-0.069-2.237-0.225-4.256-0.225-4.212 0-7.097 2.649-7.097 7.519v4.481h-4.648v5.688h4.648v14.312h5.699v-14.311h4.46l0.708-5.688h-5.169v-3.919c0.001-1.644 0.444-2.769 2.735-2.769z"></path>
</symbol>
<symbol id="icon-twitter" viewBox="0 0 32 32">
<path d="M32 6.078c-1.19 0.522-2.458 0.868-3.78 1.036 1.36-0.812 2.398-2.088 2.886-3.626-1.268 0.756-2.668 1.29-4.16 1.588-1.204-1.282-2.92-2.076-4.792-2.076-3.632 0-6.556 2.948-6.556 6.562 0 0.52 0.044 1.020 0.152 1.496-5.454-0.266-10.28-2.88-13.522-6.862-0.566 0.982-0.898 2.106-0.898 3.316 0 2.272 1.17 4.286 2.914 5.452-1.054-0.020-2.088-0.326-2.964-0.808 0 0.020 0 0.046 0 0.072 0 3.188 2.274 5.836 5.256 6.446-0.534 0.146-1.116 0.216-1.72 0.216-0.42 0-0.844-0.024-1.242-0.112 0.85 2.598 3.262 4.508 6.13 4.57-2.232 1.746-5.066 2.798-8.134 2.798-0.538 0-1.054-0.024-1.57-0.090 2.906 1.874 6.35 2.944 10.064 2.944 12.072 0 18.672-10 18.672-18.668 0-0.29-0.010-0.57-0.024-0.848 1.302-0.924 2.396-2.078 3.288-3.406z"></path>
</symbol>
<symbol id="icon-company-tag" viewBox="0 0 67 32">
<path d="M33.721 15.218c-0.269-0.349-0.431-0.792-0.431-1.274 0-0.047 0.002-0.094 0.005-0.141l-0 0.006v-2.048c0-0.633 0.142-1.109 0.427-1.436s0.782-0.491 1.472-0.484c0.647 0 1.116 0.142 1.387 0.412 0.299 0.356 0.441 0.789 0.412 1.23v0.476h-1.166v-0.484c0-0.164-0.007-0.32-0.036-0.476-0.019-0.115-0.078-0.214-0.163-0.284l-0.001-0.001c-0.106-0.072-0.237-0.116-0.378-0.116-0.017 0-0.034 0.001-0.051 0.002l0.002-0c-0.013-0.001-0.027-0.001-0.042-0.001-0.149 0-0.287 0.046-0.401 0.124l0.002-0.002c-0.099 0.077-0.17 0.185-0.198 0.309l-0.001 0.004c-0.028 0.164-0.043 0.334-0.043 0.498v2.489c-0.021 0.249 0.036 0.484 0.149 0.704 0.057 0.071 0.142 0.135 0.235 0.171 0.066 0.025 0.143 0.040 0.223 0.040 0.027 0 0.053-0.002 0.079-0.005l-0.003 0c0.017 0.002 0.036 0.002 0.055 0.002 0.133 0 0.257-0.041 0.36-0.11l-0.002 0.001c0.092-0.075 0.157-0.182 0.177-0.303l0-0.003c0.021-0.164 0.036-0.334 0.036-0.498v-0.512h1.166v0.462c0.028 0.455-0.114 0.91-0.405 1.287-0.27 0.306-0.725 0.455-1.394 0.455-0.676 0-1.18-0.164-1.472-0.498zM38.585 15.246c-0.299-0.32-0.441-0.782-0.441-1.401v-2.155c0-0.612 0.142-1.067 0.441-1.387 0.292-0.313 0.782-0.469 1.479-0.462 0.683 0 1.173 0.149 1.465 0.462 0.299 0.313 0.448 0.775 0.448 1.387v2.155c0 0.612-0.149 1.074-0.448 1.394-0.299 0.327-0.782 0.484-1.465 0.484s-1.188-0.164-1.479-0.476zM40.604 14.727c0.107-0.199 0.156-0.42 0.142-0.64v-2.638c0.014-0.213-0.036-0.427-0.142-0.626-0.061-0.075-0.14-0.134-0.231-0.169l-0.004-0.001c-0.067-0.026-0.144-0.041-0.225-0.041-0.029 0-0.057 0.002-0.084 0.005l0.003-0c-0.025-0.004-0.055-0.005-0.085-0.005-0.082 0-0.16 0.015-0.233 0.043l0.005-0.002c-0.097 0.036-0.179 0.095-0.241 0.17l-0.001 0.001c-0.090 0.171-0.143 0.373-0.143 0.588 0 0.013 0 0.027 0.001 0.040l-0-0.002v2.652c-0.007 0.213 0.036 0.441 0.142 0.64 0.145 0.131 0.339 0.211 0.551 0.211 0.106 0 0.208-0.020 0.301-0.057l-0.006 0.002c0.1-0.036 0.178-0.092 0.249-0.156v-0.014zM43.378 9.899h1.259l0.946 3.982 0.967-3.982h1.223l0.121 5.746h-0.903l-0.1-3.989-0.924 3.989h-0.74l-0.967-4.004-0.085 4.004h-0.917l0.114-5.746zM49.301 9.899h1.956c1.131 0 1.692 0.548 1.692 1.636 0 1.038-0.59 1.564-1.778 1.564h-0.668v2.546h-1.209l0.007-5.746zM50.972 12.359c0.121 0.007 0.242 0 0.356-0.028 0.114-0.036 0.22-0.085 0.313-0.156 0.135-0.192 0.199-0.427 0.171-0.647 0-0.178-0.014-0.356-0.057-0.526-0.020-0.061-0.052-0.113-0.093-0.157l0 0c-0.042-0.046-0.091-0.084-0.147-0.112l-0.003-0.001c-0.142-0.059-0.308-0.094-0.481-0.094-0.021 0-0.042 0.001-0.062 0.002l0.003-0h-0.469v1.721h0.469zM54.684 9.899h1.301l1.337 5.746h-1.131l-0.263-1.323h-1.159l-0.27 1.323h-1.138l1.33-5.746zM55.801 13.653l-0.455-2.411-0.448 2.418h0.903zM58.396 9.899h0.846l1.614 3.278v-3.271h1.010v5.739h-0.804l-1.628-3.413v3.413h-1.038v-5.746zM64.213 13.454l-1.351-3.548h1.138l0.818 2.276 0.768-2.276h1.109l-1.323 3.556v2.183h-1.166v-2.19zM35.591 18.155v0.299h-0.988v2.34h-0.412v-2.34h-0.996v-0.299h2.396zM38.684 20.793h-0.327c-0.032 0-0.062-0.011-0.086-0.029l0 0c-0.024-0.013-0.044-0.033-0.057-0.056l-0-0.001-0.284-0.626h-1.365l-0.284 0.626c-0.009 0.028-0.023 0.052-0.043 0.071v0c-0.022 0.014-0.048 0.022-0.076 0.022-0.006 0-0.011-0-0.017-0.001l0.001 0h-0.32l1.209-2.631h0.427l1.216 2.624zM36.679 19.812h1.138l-0.484-1.067c-0.030-0.070-0.059-0.155-0.082-0.243l-0.003-0.013-0.050 0.142-0.043 0.114-0.476 1.067zM40.761 20.53h0.228c0.135-0.007 0.261-0.033 0.379-0.074l-0.010 0.003 0.156-0.071v-0.59h-0.484c-0.001 0-0.002 0-0.002 0-0.023 0-0.045-0.008-0.062-0.022l0 0c-0.006-0.006-0.011-0.013-0.014-0.021l-0-0-0.007-0.028v-0.199h0.939v1.010c-0.232 0.144-0.508 0.238-0.804 0.263l-0.007 0c-0.099 0.018-0.213 0.028-0.33 0.028-0.228 0-0.447-0.039-0.651-0.11l0.014 0.004c-0.186-0.065-0.347-0.16-0.485-0.279l0.002 0.002c-0.126-0.114-0.229-0.251-0.302-0.405l-0.003-0.008c-0.072-0.16-0.114-0.346-0.114-0.543 0-0.002 0-0.003 0-0.005v0c-0.001-0.013-0.001-0.029-0.001-0.045 0-0.369 0.165-0.699 0.426-0.921l0.002-0.001c0.128-0.121 0.299-0.213 0.476-0.277 0.189-0.064 0.407-0.101 0.633-0.101 0.123 0 0.244 0.011 0.361 0.032l-0.012-0.002c0.199 0.029 0.379 0.089 0.542 0.175l-0.009-0.004c0.071 0.036 0.142 0.085 0.213 0.135l-0.121 0.164c-0.011 0.016-0.025 0.028-0.042 0.035l-0.001 0c-0.014 0.008-0.031 0.013-0.049 0.014l-0 0c-0.026-0.001-0.051-0.009-0.072-0.022l0.001 0c-0.046-0.017-0.086-0.039-0.122-0.065l0.001 0.001c-0.192-0.094-0.418-0.15-0.657-0.15-0.012 0-0.023 0-0.035 0l0.002-0c-0.007-0-0.016-0-0.025-0-0.159 0-0.312 0.026-0.455 0.074l0.010-0.003c-0.142 0.050-0.256 0.121-0.356 0.213-0.096 0.088-0.173 0.194-0.225 0.314l-0.002 0.006c-0.107 0.284-0.107 0.597 0 0.882 0.168 0.356 0.523 0.599 0.936 0.599 0.046 0 0.091-0.003 0.136-0.009l-0.005 0.001zM44.615 20.487h1.316v0.306h-1.721v-2.631h0.412l-0.007 2.325zM47.303 20.793h-0.412v-2.631h0.412v2.631zM48.839 18.169c0.028 0.014 0.050 0.028 0.064 0.050l1.764 1.984v-2.055h0.356v2.645h-0.199c-0.036 0-0.064 0-0.092-0.014-0.025-0.013-0.046-0.030-0.064-0.050l-0-0-1.764-1.991v2.055h-0.348v-2.631h0.284zM54.073 18.155v0.284h-1.465v0.875h1.188v0.284h-1.188v0.896h1.465v0.284h-1.892v-2.624h1.892zM10.78 1.892l18.347 4.494v15.758l-18.347-4.494v-15.758zM9.607 0.54v17.877l20.693 5.077v-17.877l-20.7-5.070z"></path>
<path d="M20.693 31.787l-20.693-5.092v-17.856l20.693 5.077v17.863z"></path>
<path d="M9.948 1.685l18.105 4.444-7.701 6.642-18.105-4.437 7.701-6.649zM9.607 0.548l-9.607 8.292 20.693 5.077 9.6-8.299-20.693-5.070zM21.86 30.777l8.441-7.289-8.441-2.069v9.358z"></path>
</symbol>
<symbol id="icon-brand" viewBox="0 0 43 32">
      <path d="M3.24 26.37a1.07 1.07 0 0 1-.14 1.51c-.32.22-.72.33-1.12.3H0v-4.21h1.94c.38-.02.76.08 1.07.28.13.1.22.22.29.35s.1.29.09.44a.92.92 0 0 1-.23.64c-.15.17-.36.29-.59.33.26.05.5.17.67.36zm-2.32-.63h.83c.19.01.37-.04.52-.14.07-.06.12-.12.14-.19s.05-.15.04-.23c0-.07 0-.15-.04-.22s-.07-.13-.13-.19a.86.86 0 0 0-.55-.14H.92v1.1zm1.44 1.61c.06-.05.11-.12.15-.19s.05-.15.04-.23c0-.09 0-.17-.04-.24s-.1-.15-.16-.2a.9.9 0 0 0-.56-.15H.92v1.16h.88c.2.01.4-.04.56-.15zm4.84.83-1.08-1.64h-.4v1.65h-.93v-4.22h1.75c.44-.03.88.1 1.22.36.25.23.4.53.42.85s-.08.64-.29.9c-.21.22-.5.37-.83.42l1.14 1.68h-1zm-1.5-2.22h.76c.53 0 .8-.21.8-.63a.59.59 0 0 0-.2-.48.87.87 0 0 0-.6-.17H5.7v1.28zm6.56 1.38h-1.84l-.33.84h-.97l1.7-4.16h1.04l1.7 4.17h-.98l-.32-.85zm-.24-.64-.68-1.78-.68 1.78h1.35zm6.58 1.48h-.92l-2.06-2.86v2.86h-.92v-4.21h.92l2.06 2.88v-2.88h.92v4.21zm5.25-1a2 2 0 0 1-.83.74 3 3 0 0 1-1.3.26H20.1v-4.21h1.64a3 3 0 0 1 1.29.26c.35.16.64.42.83.73a2.29 2.29 0 0 1 0 2.22zm-1.05-.1a1.47 1.47 0 0 0 0-2.01 1.7 1.7 0 0 0-1.15-.37H21v2.73h.64c.42.03.83-.1 1.15-.35zM12.84.52s11.87 4.1 11.62 10.04v10.05s-11.87-4.1-11.62-10.04V.51zm22.2 17.74a17.21 17.21 0 0 1 7.54-2.55v-3.14a15.26 15.26 0 0 0-7.54 5.69z"/>
      <path d="M33.69 19.2a15.71 15.71 0 0 1 8.9-7.29V2.85S25.66 8.7 26.02 17.15v14.3s.75-.26 1.94-.75c0-.45 0-.91.05-1.38a14.49 14.49 0 0 1 5.67-10.11z"/>
      <path d="M32.08 24.52c.09-1 .29-1.97.6-2.93a13.24 13.24 0 0 0-3.59 8.64c.96-.42 2.08-.95 3.25-1.57a13.7 13.7 0 0 1-.26-4.14zm.67.05c-.1 1.25-.04 2.52.21 3.75 4.62-2.53 9.81-6.44 9.61-11.17v-.4a15.8 15.8 0 0 0-8.79 3.75c-.56 1.3-.9 2.68-1.03 4.07z"/>
    </symbol>
    <symbol id="icon-foster-peters" viewBox="0 0 65 32">
      <path d="M10.02 9.98c-1.83 0-3.31 1.32-3.31 2.94 0 1.63 1.48 2.95 3.3 2.95 1.83 0 3.31-1.32 3.31-2.94 0-1.63-1.48-2.95-3.3-2.95zm24.41-.94c0-2.25-1.01-4.41-2.8-6S27.4.53 24.85.53c-2.54 0-4.97.9-6.77 2.49s-2.8 3.76-2.8 6.01v12.44s19.14-1.9 19.14-12.44zM0 25.56c0 1.57.7 3.08 1.96 4.19s2.94 1.73 4.7 1.74c1.77-.01 3.46-.63 4.7-1.74s1.96-2.62 1.96-4.19v-8.65S0 18.23 0 25.56zm6.66 1.55c-.34 0-.68-.09-.97-.26s-.5-.41-.64-.7c-.13-.28-.17-.59-.1-.9s.23-.57.48-.79.55-.36.9-.42c.33-.06.68-.03 1 .09s.59.31.78.57a1.43 1.43 0 0 1-.21 1.96 1.89 1.89 0 0 1-1.24.46zm13.47-.85h-1.29v1.33h-.67v-3.25h2.12v.54h-1.45v.84h1.29v.54zm3.22-.23c0 .32-.06.6-.17.85s-.28.42-.5.55c-.2.14-.44.2-.71.2a1.34 1.34 0 0 1-1.22-.75 1.9 1.9 0 0 1-.17-.83v-.16a2 2 0 0 1 .17-.84 1.28 1.28 0 0 1 1.21-.76 1.34 1.34 0 0 1 1.22.76c.1.24.17.52.17.84v.14zm-.68-.14c0-.34-.06-.6-.19-.78s-.3-.26-.52-.26a.6.6 0 0 0-.52.26c-.12.17-.18.43-.18.77v.15c0 .34.06.6.18.78s.3.27.53.27a.6.6 0 0 0 .52-.26c.12-.18.18-.44.18-.77v-.16zm2.85.84a.34.34 0 0 0-.14-.29 1.71 1.71 0 0 0-.48-.21 3.46 3.46 0 0 1-.55-.22c-.37-.2-.55-.47-.55-.8 0-.18.05-.34.14-.48.1-.14.25-.24.43-.32a1.6 1.6 0 0 1 1.25.01.93.93 0 0 1 .57.88h-.67a.43.43 0 0 0-.14-.35.58.58 0 0 0-.4-.13.61.61 0 0 0-.38.11.32.32 0 0 0-.13.27c0 .1.05.2.15.27.11.07.27.14.48.2.38.11.65.26.83.42s.26.39.26.64c0 .28-.1.5-.32.66-.21.16-.5.24-.86.24a1.5 1.5 0 0 1-.68-.14.97.97 0 0 1-.63-.93h.67c0 .36.21.54.64.54.16 0 .29-.03.37-.1a.32.32 0 0 0 .14-.27zm3.57-1.85h-1v2.7h-.66v-2.7h-.99v-.54h2.65v.54zm2.34 1.3h-1.28v.87h1.5v.54h-2.17v-3.25h2.17v.54h-1.5v.77h1.28v.53zm1.82.22h-.53v1.19h-.67v-3.25h1.2c.39 0 .69.08.9.25s.3.42.3.73a1 1 0 0 1-.14.55.98.98 0 0 1-.43.36l.7 1.33v.03h-.72l-.6-1.2zm-.53-.55h.54c.16 0 .3-.04.39-.12.09-.09.14-.2.14-.36a.49.49 0 0 0-.14-.36c-.08-.09-.22-.13-.4-.13h-.53v.97zm4.05.6v1.14h-.67v-3.25h1.27c.25 0 .46.04.65.13a1.03 1.03 0 0 1 .58.94c0 .32-.11.57-.33.76-.22.18-.52.27-.9.27h-.6zm0-.55h.6c.18 0 .32-.04.4-.13.1-.08.15-.2.15-.35 0-.16-.05-.3-.14-.39s-.23-.15-.4-.15h-.6v1.02zm4.24.28h-1.28v.87h1.5v.54h-2.17v-3.25h2.17v.54h-1.5v.77H41v.53zm3.1-1.3h-.99v2.7h-.67v-2.7h-.98v-.54h2.65v.54zm2.35 1.3h-1.29v.87h1.51v.54H44.5v-3.25h2.18v.54h-1.5v.77h1.28v.53zm1.82.22h-.54v1.19h-.67v-3.25h1.21c.39 0 .68.08.89.25s.31.42.31.73a1 1 0 0 1-.14.55.98.98 0 0 1-.44.36l.7 1.33v.03h-.71l-.61-1.2zm-.54-.55h.54c.17 0 .3-.04.4-.12.09-.09.13-.2.13-.36a.49.49 0 0 0-.13-.36c-.09-.09-.22-.13-.4-.13h-.54v.97zm3.94.88a.34.34 0 0 0-.13-.29 1.71 1.71 0 0 0-.49-.21 3.46 3.46 0 0 1-.55-.22c-.37-.2-.55-.47-.55-.8 0-.18.05-.34.14-.48.1-.14.25-.24.43-.32a1.6 1.6 0 0 1 1.25.01.93.93 0 0 1 .57.88h-.67a.43.43 0 0 0-.14-.35.58.58 0 0 0-.4-.13.61.61 0 0 0-.38.11.32.32 0 0 0-.13.27c0 .1.05.2.15.27.11.07.27.14.48.2.38.11.65.26.83.42s.26.39.26.64c0 .28-.1.5-.32.66-.21.16-.5.24-.86.24a1.5 1.5 0 0 1-.68-.14.97.97 0 0 1-.63-.93h.67c0 .36.21.54.64.54.16 0 .28-.03.37-.1a.32.32 0 0 0 .14-.27z"/>
    </symbol>
    <symbol id="icon-company" viewBox="0 0 34 32">
      <path d="M5.64 31.32h.04l.03.02.16.16c-.13.13-.28.23-.46.3-.21.08-.44.11-.67.1-.21.01-.42-.02-.62-.1a1.28 1.28 0 0 1-.77-.73 1.47 1.47 0 0 1 0-1.12c.08-.16.19-.31.33-.44.14-.12.31-.22.5-.29a1.96 1.96 0 0 1 1.24 0c.16.06.31.14.44.25l-.14.17a.17.17 0 0 1-.03.03.1.1 0 0 1-.06.01l-.06-.01-.07-.05-.1-.06a1.3 1.3 0 0 0-.58-.12c-.16 0-.32.03-.46.08s-.26.12-.36.21a1.02 1.02 0 0 0-.32.79c0 .15.02.3.08.45a.94.94 0 0 0 .58.55c.13.05.28.07.43.07l.25-.01a1.01 1.01 0 0 0 .55-.23.13.13 0 0 1 .08-.03zm4.8-.8a1.27 1.27 0 0 1-.42.99c-.14.13-.31.23-.5.29-.4.14-.85.14-1.26 0a1.45 1.45 0 0 1-.49-.29 1.29 1.29 0 0 1-.31-.44 1.46 1.46 0 0 1 0-1.12 1.25 1.25 0 0 1 .81-.72 2 2 0 0 1 1.26 0c.18.07.35.16.49.29a1.29 1.29 0 0 1 .42 1zm-.43 0c0-.16-.03-.3-.08-.45a.94.94 0 0 0-.58-.56c-.3-.1-.62-.1-.91 0a.97.97 0 0 0-.36.22.9.9 0 0 0-.22.34c-.1.29-.1.6 0 .9a.93.93 0 0 0 .58.55c.3.1.62.1.91 0a.93.93 0 0 0 .57-.55c.06-.15.09-.3.09-.45zm3.7.47.05.1.05-.1a.95.95 0 0 1 .05-.1l1.06-1.68c.02-.03.04-.04.06-.05h.4v2.72h-.37v-2.19l-1.07 1.7c-.01.03-.03.05-.06.07s-.06.02-.09.02h-.06c-.03 0-.06 0-.1-.02s-.04-.04-.05-.06l-1.1-1.71v2.18h-.36v-2.72h.31l.09.01a.1.1 0 0 1 .06.05l1.08 1.68.06.1zm4-.13v1.02h-.41v-2.73h.92a2 2 0 0 1 .52.06c.13.04.26.1.36.17.1.08.17.17.21.27.05.11.07.23.07.35a.77.77 0 0 1-.3.62c-.1.08-.23.14-.37.18-.16.04-.33.06-.5.06h-.5zm0-.3h.5c.11 0 .22-.01.33-.04a.71.71 0 0 0 .23-.12.53.53 0 0 0 .2-.4c0-.08-.02-.16-.05-.23s-.09-.13-.15-.18a.89.89 0 0 0-.56-.15h-.5v1.12zm5.59 1.32h-.33c-.04 0-.07 0-.1-.03a.17.17 0 0 1-.05-.06l-.28-.66h-1.42l-.3.66a.15.15 0 0 1-.14.09h-.33l1.25-2.73h.43l1.26 2.73zm-2.06-1.01h1.17l-.5-1.11a1.75 1.75 0 0 1-.09-.26l-.05.14-.04.12-.5 1.1zm3.85-1.71.06.05 1.82 2.06v-2.12h.37v2.73h-.2a.2.2 0 0 1-.1-.02.24.24 0 0 1-.06-.05l-1.81-2.05v2.12h-.38v-2.73h.22a.2.2 0 0 1 .08.02zm5.31 1.64v1.08H30V30.8l-1.15-1.65h.37l.09.03a.1.1 0 0 1 .05.06l.72 1.06a1.88 1.88 0 0 1 .13.24l.06-.12a.97.97 0 0 1 .07-.12l.7-1.07a.3.3 0 0 1 .06-.06.14.14 0 0 1 .09-.03h.37L30.4 30.8zm-16.89-6.22.55.05c2.8-1.1 5.17-2.88 6.81-5.13s2.49-4.88 2.43-7.55l-3.1-2.68c.64 2.84.34 5.78-.84 8.48s-3.21 5.07-5.85 6.83z"/>
      <path d="m12.4 24.45.09.02c2.82-1.76 4.97-4.2 6.18-7.03s1.4-5.9.57-8.84l-4.4-3.82c1.78 3.14 2.5 6.66 2.06 10.14s-1.99 6.79-4.5 9.53zm14.93-9.35a13.74 13.74 0 0 1-5.18 7.54 16.5 16.5 0 0 1-2.46 1.54c2.13-.55 4.09-1.5 5.72-2.81s2.9-2.92 3.7-4.72l-1.78-1.55z"/>
      <path d="m26.63 14.67-2.54-2.2c-.05 2.51-.88 4.97-2.39 7.12s-3.66 3.9-6.22 5.08h.02c.57 0 1.14-.03 1.7-.08 2.4-.85 4.5-2.2 6.15-3.93s2.77-3.79 3.28-5.99zM12.77 3.17 9.74.53c-2.7.91-5.04 2.51-6.68 4.6S.53 9.65.52 12.18c0 2.79 1.09 5.5 3.07 7.69s4.74 3.75 7.86 4.43c2.78-2.94 4.4-6.58 4.64-10.38s-.92-7.57-3.32-10.76zm20.86 11.1c-.01-3.31-1.53-6.48-4.22-8.82s-6.34-3.66-10.15-3.67c-1.76 0-3.5.28-5.15.83l18.56 16.13c.64-1.43.96-2.94.96-4.47z"/>
    </symbol>
    <symbol id="icon-company-tegline" viewBox="0 0 25 32">
      <path d="M10.53 1.8h-.75a14.18 14.18 0 0 0-.8.01 17.4 17.4 0 0 0-6.47 1.65l-.26.13v13.63l.62-.22a21.16 21.16 0 0 1 6.71-1.18v1.8c-.22 0-.44 0-.65.02h-.05A19.95 19.95 0 0 0 .48 20V2.54A18.3 18.3 0 0 1 5.27.58C6.74.2 8.26.01 9.78 0h.26a12.96 12.96 0 0 1 3.16.4v1.76a15.7 15.7 0 0 0-2.18-.33h-.04l-.45-.03zm3.1 1.8a19.35 19.35 0 0 0 5.95-.56c1.6-.4 3.13-1 4.57-1.78v17.16c-1.5.88-3.11 1.53-4.8 1.95-1.47.38-2.99.58-4.5.58-1.16.01-2.31-.12-3.43-.4V3.27a14.28 14.28 0 0 0 2.21.34zm8.74.14-.63.21c-.57.2-1.15.36-1.73.52a21.1 21.1 0 0 1-6.31.63l-.5-.04v14.02l.43.04a16.57 16.57 0 0 0 5.29-.48 17.1 17.1 0 0 0 3.18-1.14l.27-.13V3.74zM1.68 25.98A.91.91 0 0 0 1 25.7c-.14 0-.27.02-.4.07a.91.91 0 0 0-.51.52 1 1 0 0 0-.07.39V29c0 .17.02.33.09.48a.81.81 0 0 0 .55.48c.12.03.23.05.35.05a.97.97 0 0 0 .9-.61.95.95 0 0 0 .07-.37v-.26h-.61v.2a.5.5 0 0 1-.04.21.36.36 0 0 1-.09.13.37.37 0 0 1-.12.07.42.42 0 0 1-.13.02.31.31 0 0 1-.29-.12.55.55 0 0 1-.08-.32V26.8c0-.12.02-.24.08-.35.03-.05.07-.1.12-.12s.12-.03.17-.02c.06 0 .11 0 .16.03s.09.06.12.1c.06.09.1.2.1.31v.2h.6v-.24a1.1 1.1 0 0 0-.28-.73zm3.63-.03a1.05 1.05 0 0 0-1.38 0c-.1.1-.18.2-.24.33-.06.14-.09.3-.09.45v2.24c0 .16.03.31.1.46a.9.9 0 0 0 .23.31c.1.09.2.15.32.2a1.08 1.08 0 0 0 .73 0c.12-.05.23-.11.33-.2a.96.96 0 0 0 .32-.77v-2.24a1.02 1.02 0 0 0-.32-.78zm-.28 3.02a.4.4 0 0 1-.13.32.45.45 0 0 1-.57 0 .4.4 0 0 1-.12-.32v-2.24a.4.4 0 0 1 .12-.32.45.45 0 0 1 .57 0 .4.4 0 0 1 .13.32v2.24zm5.04 1v-4.24h-.59l-.77 2.24-.78-2.24h-.59v4.24h.61v-2.58h.01l.6 1.82h.3l.6-1.82v2.58h.61zm3.44-3.94a.84.84 0 0 0-.34-.24 1.36 1.36 0 0 0-.44-.06h-.9v4.24h.6V28.3h.32c.18.01.37-.03.54-.11a.88.88 0 0 0 .33-.33.98.98 0 0 0 .14-.37 3 3 0 0 0-.02-1.08.9.9 0 0 0-.23-.4zm-.3 1.29a.57.57 0 0 1-.07.22.35.35 0 0 1-.15.15.62.62 0 0 1-.29.05h-.27V26.3h.31c.1 0 .19.02.27.05.06.04.11.1.14.16.04.08.05.16.06.24v.57zm3.16-1.59h-.5l-.92 4.24h.6l.18-.91h.82l.18.9h.6l-.96-4.23zm-.55 2.75.3-1.54.3 1.54h-.6zm4.46-.2h-.01l-.92-2.55h-.58v4.24h.6v-2.55h.02l.92 2.55h.57v-4.24h-.6v2.55zm3.69-2.55-.49 1.69h-.01l-.49-1.69h-.64l.83 2.45v1.79h.6v-1.8l.84-2.44h-.64zM0 31.17h.3v.81h.19v-.81h.29V31H0v.17zM2.45 31l-.38.98h.2l.09-.22h.39l.08.22h.22l-.4-.98h-.2zm-.03.6.13-.37.13.36h-.26zm2.45.02h.22v.13a.38.38 0 0 1-.23.08c-.04 0-.08 0-.12-.02l-.09-.07a.41.41 0 0 1-.07-.26c0-.22.1-.33.28-.33.05 0 .1 0 .14.04s.07.07.08.12l.2-.04c-.05-.2-.18-.29-.42-.29a.5.5 0 0 0-.34.13c-.05.05-.1.1-.12.17l-.03.2c0 .14.04.27.13.38a.48.48 0 0 0 .38.14c.15 0 .3-.05.41-.16v-.39h-.42v.17zM7.34 31h-.2v.98h.69v-.17h-.5V31zm2.09 0h-.2v.98h.2V31zm2.04.66-.4-.66h-.2v.98h.19v-.64l.4.64h.2V31h-.2v.66zm1.84-.11h.5v-.17h-.5v-.21h.53V31h-.72v.98h.74v-.16h-.54v-.27zm4.49-.16h-.4v-.4h-.2v1h.2v-.44h.4v.43h.19V31h-.2v.39zm1.85.16h.5v-.17h-.5v-.21h.53V31h-.73v.98h.75v-.16h-.55v-.27zm2.52 0c.17-.03.26-.12.26-.28a.24.24 0 0 0-.1-.21.55.55 0 0 0-.29-.06h-.42v.98h.2v-.41h.04c.04 0 .09 0 .12.02s.06.04.07.07l.22.32h.24l-.12-.2a.69.69 0 0 0-.22-.23zm-.2-.14h-.15v-.24h.16c.07 0 .13 0 .2.02l.03.04.01.06-.01.06a.11.11 0 0 1-.04.04.55.55 0 0 1-.2.02zm2.1.14h.49v-.17h-.5v-.21h.54V31h-.73v.98h.74v-.16h-.54v-.27z"/>
    </symbol>
    <symbol id="icon-yago" viewBox="0 0 28 32">
      <path d="m4.08 0 4.78 4.52H0v21.9h23.15v-8.37l4.77 4.51V0H4.07zm18.86 17.52L9.4 4.7h13.53v12.8zm-4.2 5.7H3.66V8.48h1.07v13.74h14v1zM7.22 29.34l-.55 1.15-.56-1.15h-.47l.81 1.53v.9h.43v-.9l.8-1.53h-.46zm.7 2.42.2-.56h.94l.2.56h.43l-.91-2.42H8.4l-.91 2.42h.43zm.67-1.9.35 1h-.7l.35-1zm2.21.94a.64.64 0 0 0 .12.8c.15.13.34.2.58.2s.45-.07.62-.2l.14.16h.47l-.36-.42c.14-.19.2-.43.2-.73h-.34c0 .16-.04.31-.1.44l-.47-.55.16-.12a.9.9 0 0 0 .26-.25.53.53 0 0 0 .07-.28.5.5 0 0 0-.17-.38.61.61 0 0 0-.43-.16c-.2 0-.35.06-.47.17a.6.6 0 0 0-.17.44c0 .08.02.16.06.25.03.08.1.18.2.3-.19.13-.3.24-.37.33zm1.1.54a.62.62 0 0 1-.39.13c-.12 0-.21-.03-.28-.1s-.11-.16-.11-.27c0-.13.07-.25.2-.35l.05-.04.53.63zm-.44-1.07c-.11-.14-.17-.26-.17-.35 0-.09.03-.15.07-.2s.11-.08.19-.08c.07 0 .13.02.18.06.05.05.07.1.07.16a.3.3 0 0 1-.1.24l-.05.04-.19.13zm3.94 1.31a.88.88 0 0 0 .29-.6h-.42c-.02.17-.07.3-.16.37s-.2.1-.37.1a.47.47 0 0 1-.41-.2c-.1-.14-.14-.34-.14-.6v-.21a1 1 0 0 1 .15-.59.5.5 0 0 1 .42-.2c.16 0 .28.04.36.12.08.07.13.2.15.37h.42c-.03-.26-.12-.47-.28-.61s-.38-.22-.65-.22c-.2 0-.37.05-.53.14-.15.1-.26.23-.34.4s-.12.38-.12.6v.23c0 .23.04.42.12.59s.2.3.34.4c.15.08.32.13.51.13.28 0 .5-.08.66-.22zm2.47-.34c.09-.18.13-.39.13-.62v-.14c0-.23-.04-.44-.13-.62a.92.92 0 0 0-.88-.55c-.2 0-.37.05-.52.14a.94.94 0 0 0-.35.42c-.09.18-.13.39-.13.62v.14c0 .23.04.44.13.61.08.18.2.32.35.41.16.1.33.15.53.15s.37-.05.52-.15a.9.9 0 0 0 .35-.4zm-.45-1.37c.1.15.16.35.16.62v.13c0 .27-.05.48-.15.62a.5.5 0 0 1-.43.21.5.5 0 0 1-.44-.22c-.1-.14-.15-.35-.15-.61v-.14c0-.26.05-.47.16-.6a.5.5 0 0 1 .42-.22.5.5 0 0 1 .43.21z"/>
    </symbol>
  </defs>
</svg>
